<?xml version="1.0" encoding="UTF-8"?>
<svg width="24px" height="24px" viewBox="0 0 24 24" version="1.1" xmlns="http://www.w3.org/2000/svg" xmlns:xlink="http://www.w3.org/1999/xlink">
    <!-- Generator: Sketch 49 (51002) - http://www.bohemiancoding.com/sketch -->
    <title>Combined Shape</title>
    <desc>Created with Sketch.</desc>
    <defs></defs>
    <g id="Page-1" stroke="none" stroke-width="1" fill="none" fill-rule="evenodd">
        <g id="新版微信会员卡" transform="translate(-15.000000, -315.000000)" fill="#34C094" fill-rule="nonzero">
            <path d="M27,339 C20.372583,339 15,333.627417 15,327 C15,320.372583 20.372583,315 27,315 C33.627417,315 39,320.372583 39,327 C39,333.627417 33.627417,339 27,339 Z M27,337.5 C32.7989899,337.5 37.5,332.79899 37.5,327 C37.5,321.20101 32.7989899,316.5 27,316.5 C21.2010101,316.5 16.5,321.20101 16.5,327 C16.5,332.79899 21.2010101,337.5 27,337.5 Z M27.75,326.25 L34,326.25 C34.4142136,326.25 34.75,326.585786 34.75,327 C34.75,327.414214 34.4142136,327.75 34,327.75 L27,327.75 C26.5857864,327.75 26.25,327.414214 26.25,327 L26.25,321 C26.25,320.585786 26.5857864,320.25 27,320.25 C27.4142136,320.25 27.75,320.585786 27.75,321 L27.75,326.25 Z" id="Combined-Shape"></path>
        </g>
    </g>
</svg>