<?xml version="1.0" encoding="UTF-8"?>
<svg width="24px" height="24px" viewBox="0 0 24 24" version="1.1" xmlns="http://www.w3.org/2000/svg" xmlns:xlink="http://www.w3.org/1999/xlink">
    <!-- Generator: Sketch 49 (51002) - http://www.bohemiancoding.com/sketch -->
    <title>Combined Shape@1x</title>
    <desc>Created with Sketch.</desc>
    <defs></defs>
    <g id="Page-1" stroke="none" stroke-width="1" fill="none" fill-rule="evenodd">
        <g id="新版微信会员卡" transform="translate(-15.000000, -256.000000)" fill="#F87E4E">
            <path d="M27.75,267.5 L27.75,270 L32.25,270 C32.6642136,270 33,270.335786 33,270.75 C33,271.164214 32.6642136,271.5 32.25,271.5 L27.75,271.5 L27.75,275 C27.75,275.414214 27.4142136,275.75 27,275.75 C26.5857864,275.75 26.25,275.414214 26.25,275 L26.25,271.5 L21.75,271.5 C21.3357864,271.5 21,271.164214 21,270.75 C21,270.335786 21.3357864,270 21.75,270 L26.25,270 L26.25,267.5 L21.75,267.5 C21.3357864,267.5 21,267.164214 21,266.75 C21,266.335786 21.3357864,266 21.75,266 L23.9393398,266 L21.4696699,263.53033 C21.1767767,263.237437 21.1767767,262.762563 21.4696699,262.46967 C21.7625631,262.176777 22.2374369,262.176777 22.5303301,262.46967 L25.5303301,265.46967 C25.6767767,265.616117 25.75,265.808058 25.75,266 L28.25,266 C28.25,265.808058 28.3232233,265.616117 28.4696699,265.46967 L31.4696699,262.46967 C31.7625631,262.176777 32.2374369,262.176777 32.5303301,262.46967 C32.8232233,262.762563 32.8232233,263.237437 32.5303301,263.53033 L30.0606602,266 L32.25,266 C32.6642136,266 33,266.335786 33,266.75 C33,267.164214 32.6642136,267.5 32.25,267.5 L27.75,267.5 Z M37.5,266 L37.3097533,266 C36.3758938,261.157561 32.1150815,257.5 27,257.5 C21.8849185,257.5 17.6241062,261.157561 16.6902467,266 L15.1659169,266 C16.1180731,260.324573 21.0540074,256 27,256 C31.5180401,256 35.4529066,258.496863 37.5,262.185989 L37.5,260 L39,260 L39,266 L37.5,266 Z M16.5,270 L16.6902467,270 C17.6241062,274.842439 21.8849185,278.5 27,278.5 C32.1150815,278.5 36.3758938,274.842439 37.3097533,270 L38.8340831,270 C37.8819269,275.675427 32.9459926,280 27,280 C22.4819599,280 18.5470934,277.503137 16.5,273.814011 L16.5,276 L15,276 L15,270 L16.5,270 Z" id="Combined-Shape"></path>
        </g>
    </g>
</svg>